<svg xmlns="http://www.w3.org/2000/svg" xmlns:xlink="http://www.w3.org/1999/xlink" viewBox="0 0 313.92149 228.2528"><defs><radialGradient id="a" cx="154.97503" cy="114.1264" r="114.1264" gradientUnits="userSpaceOnUse"><stop offset="0" stop-color="#ffd02a" stop-opacity="0.89"/><stop offset="0.08739" stop-color="#ffd02a" stop-opacity="0.78659"/><stop offset="0.3378" stop-color="#ffd02a" stop-opacity="0.51004"/><stop offset="0.56319" stop-color="#ffd02a" stop-opacity="0.29076"/><stop offset="0.75559" stop-color="#ffd02a" stop-opacity="0.13272"/><stop offset="0.90748" stop-color="#ffd02a" stop-opacity="0.03573"/><stop offset="1" stop-color="#ffd02a" stop-opacity="0"/></radialGradient></defs><title>logo3</title><circle cx="154.97503" cy="114.1264" r="114.1264" style="fill:url(#a)"/><path d="M145.55729,207.11368a79.34125,79.34125,0,0,1-17.92558,5.11543c-6.39513,1.25514-12.69805,1.55994-22.44008,1.55994H95.3893q-42.56962-1.4643-59.98722-25.86946-17.4227-24.4155-17.0044-61.55147Q18.189,68.9903,69.93814,48.9582q10.8476-4.37829,31.28839-4.38316a112.406,112.406,0,0,1,44.33075,9.62616c-.4118,3.3707-7.00521,16.09422-11.57734,23.17663-.31859.47813-.63767.94653-.9762,1.41468q-10.95266-13.88126-30.52183-14.185Q62.8854,67.65575,57.84488,116.327q-.46329,4.40784-.63718,9.20431.23858,7.94929,1.07542,14.99194,4.27323,35.6217,23.95743,47.81467a45.0541,45.0541,0,0,0,21.078,5.20979q7.30688,0,20.24186-3.33716l-13.97573-30.79086,13.97573.45348C123.66009,159.93272,137.26345,177.29988,145.55729,207.11368Z" transform="translate(-18.38788 -15.14978)" style="fill:#e4e4ed"/><path d="M324.23954,87.26252c-12.73-28.14014-37.14014-42.4-72.57031-42.4H200.19879c2.3373,22.21337,22.17064,44.63,30.62083,49.33V68.50251h8.66992c9.23975,0,16.77979.83008,22.37012,2.47,20.46,6.96,30.83984,26.1499,30.83984,57.05,0,19.59009-4.64014,34.36011-13.78027,43.90991-9.05957,9.46-23.00977,14.26-41.46,14.26h-.00977c-1.31006,0-2.66992-.03-4-.07007a3.04054,3.04054,0,0,1-2.18018-.7998,2.98047,2.98047,0,0,1-.44971-2.3V164.19245c-22.87572,8.36011-30.34984,43.24677-30.95288,49.3501h50.96265c13.66992,0,25.54-2.15015,35.32031-6.40015,31.05957-15.02979,46.15967-40.63989,46.15967-78.27979C332.30937,111.55256,329.58915,97.54255,324.23954,87.26252Z" transform="translate(-18.38788 -15.14978)" style="fill:#e4e4ed"/><path d="M263.37381,133.36349c-.03485,0-.05186.01743-.08671.01743a2.2096,2.2096,0,0,1-.43525.16534c-11.1078,3.32537-22.24153,6.78123-33.09643,11.06424-.04378.01721-.08714.03464-.13049.05207-1.2624.52239-2.51586,1.05327-3.76933,1.6018-3.05568,1.3406-6.05865,2.77684-9.00976,4.33507a.0086.0086,0,0,0-.00893.00871c-6.31963,3.72577-13.17057,9.05312-16.548,13.30127-3.21209,4.04774-5.45805,8.82678-7.99985,13.37948-.383.70516-.77486,1.4016-1.18376,2.08933l-.122.03485c-.43525.92257-.862,1.86278-1.2709,2.803a.03132.03132,0,0,0-.00893.02614,393.63329,393.63329,0,0,0-12.61333,38.83289,4.19071,4.19071,0,0,1-2.39388,3.49943.44533.44533,0,0,1-.13049.061,1.27093,1.27093,0,0,1-.22655.09564c-.11306.03485-.21762.06971-.33069.09585-.10456.02614-.21763.04357-.32219.06078a1.90021,1.90021,0,0,1-.31326.02635v-.00893a2.68384,2.68384,0,0,1-2.55964-2.22832c-3.52536-11.186-6.74638-22.46766-10.82-33.39248-1.14933-3.06418-2.359-6.10221-3.65627-9.1054h-.17385c-4.67469-9.81927-10.29808-19.96051-19.80388-25.92352q-3.48689-2.20664-7.11234-4.11745c-14.44146-7.6343-30.215-11.9868-45.527-16.80941-.05228-.01743-.10456-.05207-.14792-.0695a4.41543,4.41543,0,0,1,.11306-8.24382.785.785,0,0,0,.18277-.0695c16.74863-5.14458,33.819-10.14145,49.12248-18.83774a44.20568,44.20568,0,0,0,15.93-14.65037,114.44042,114.44042,0,0,0,9.62778-18.85517q1.606-3.95614,3.02932-7.98242c3.32558-9.34916,6.03272-18.96823,8.92263-28.387a2.89785,2.89785,0,0,1,2.87291-2.7421h.18277a3.23967,3.23967,0,0,1,3.05525,2.90755c1.95863,6.4939,3.865,13.06622,5.95409,19.57754,1.09705,3.44715,2.25488,6.86815,3.49985,10.25452a153.12938,153.12938,0,0,0,6.224,14.72879,106.3514,106.3514,0,0,0,5.57962,10.01947,43.662,43.662,0,0,0,15.61715,14.98127,127.2,127.2,0,0,0,12.36977,6.21528c11.39471,5.0143,23.42487,8.65293,35.29011,12.28285a19.07132,19.07132,0,0,1,2.10654.6703A4.44234,4.44234,0,0,1,263.37381,133.36349Z" transform="translate(-18.38788 -15.14978)" style="fill:#eda72b"/><path d="M263.37381,133.36349c-.03485,0-.05186.01743-.08671.01743a2.2096,2.2096,0,0,1-.43525.16534c-11.1078,3.32537-22.24153,6.78123-33.09643,11.06424-.04378.01721-.08714.03464-.13049.05207-1.14083.444-2.28081.90535-3.41272,1.37546l-.35662.16534-7.06006,3.30794a2.58,2.58,0,0,1-.31326.14792c-.53981.296-1.08813.60952-1.63644.94021a.0086.0086,0,0,0-.00893.00871c-6.31963,3.72577-13.17057,9.05312-16.548,13.30127-3.21209,4.04774-5.45805,8.82678-7.99985,13.37948-.383.70516-.77486,1.4016-1.18376,2.08933l-.122.03485-.99249.27841.31326.96635c-.2002.52217-.4004,1.03584-.59167,1.55823a.03132.03132,0,0,0-.00893.02614,393.63329,393.63329,0,0,0-12.61333,38.83289,4.19071,4.19071,0,0,1-2.39388,3.49943.44533.44533,0,0,1-.13049.061,1.27093,1.27093,0,0,1-.22655.09564c-.11306.03485-.21762.06971-.33069.09585-.10456.02614-.21763.04357-.32219.06078-.10456.00893-.2087.01743-.31326.01743a2.68384,2.68384,0,0,1-2.55964-2.22832c-3.52536-11.186-6.74638-22.46766-10.82-33.39248-1.14933-3.06418-2.359-6.10221-3.65627-9.1054h-.17385c-4.67469-9.81927-10.29808-19.96051-19.80388-25.92352q-3.48689-2.20664-7.11234-4.11745c-14.44146-7.6343-30.215-11.9868-45.527-16.80941-.05228-.01743-.10456-.05207-.14792-.0695a4.41543,4.41543,0,0,1,.11306-8.24382.785.785,0,0,0,.18277-.0695c16.74863-5.14458,33.819-10.14145,49.12248-18.83774a44.20568,44.20568,0,0,0,15.93-14.65037,114.44042,114.44042,0,0,0,9.62778-18.85517q1.606-3.95614,3.02932-7.98242c3.32558-9.34916,6.03272-18.96823,8.92263-28.387a2.89785,2.89785,0,0,1,2.87291-2.7421h.18277a3.23967,3.23967,0,0,1,3.05525,2.90755c1.95863,6.4939,3.865,13.06622,5.95409,19.57754,1.09705,3.44715,2.25488,6.86815,3.49985,10.25452a153.12938,153.12938,0,0,0,6.224,14.72879,106.3514,106.3514,0,0,0,5.57962,10.01947,43.662,43.662,0,0,0,15.61715,14.98127,127.2,127.2,0,0,0,12.36977,6.21528c11.39471,5.0143,23.42487,8.65293,35.29011,12.28285a19.07132,19.07132,0,0,1,2.10654.6703A4.44234,4.44234,0,0,1,263.37381,133.36349Z" transform="translate(-18.38788 -15.14978)" style="fill:#eda72b"/><path d="M218.30111,131.27562c-.01668,0-.025.00834-.0417.00834a1.15441,1.15441,0,0,1-.21661.08329,190.47324,190.47324,0,0,0-18.27818,6.23163l-3.699,1.73281c-.05.025-.1.05-.15829.075a34.32474,34.32474,0,0,0-9.07248,7.10637c-1.84951,2.33267-3.05747,5.14022-4.58205,7.71447l-.55816.15829.15829.48321a197.10034,197.10034,0,0,0-6.58986,20.161c-.075,1.68288-2.491,2.89084-3.13247.7998-2.24938-7.148-4.25713-14.371-7.223-21.20243h-.08329c-2.33272-4.89864-5.14027-9.95556-9.88061-12.92974-8.11439-5.14022-17.34516-7.63118-26.2593-10.43873-.025-.00834-.05-.025-.075-.03336a2.20566,2.20566,0,0,1,.05832-4.11552.40554.40554,0,0,0,.09163-.03331c8.356-2.566,16.87029-5.05693,24.50152-9.3974a21.94,21.94,0,0,0,7.94776-7.30626,63.86222,63.86222,0,0,0,6.31492-13.38794c1.65786-4.66539,3.00748-9.464,4.44873-14.16271a1.44826,1.44826,0,0,1,1.433-1.3663h.09163a1.61017,1.61017,0,0,1,1.52459,1.44959c2.81588,9.31406,5.3818,18.953,10.60536,27.22573a21.74316,21.74316,0,0,0,7.78947,7.47294c7.38965,4.25713,15.66234,6.7481,23.77673,9.23072a10.20942,10.20942,0,0,1,1.04972.33326A2.21557,2.21557,0,0,1,218.30111,131.27562Z" transform="translate(-18.38788 -15.14978)" style="fill:#ffebcc"/><path d="M173.3731,33.491,172.903,81.56l-.32219,32.68732a15.1024,15.1024,0,0,1-15.10326,14.95513H80.79532a4.28407,4.28407,0,0,1,2.88991-4.18716.785.785,0,0,0,.18277-.0695c16.74863-5.14458,33.819-10.14145,49.12248-18.83774a44.20568,44.20568,0,0,0,15.93-14.65037,114.44042,114.44042,0,0,0,9.62778-18.85517q1.606-3.95614,3.02932-7.98242c3.32558-9.34916,6.03272-18.96823,8.92263-28.387A2.89785,2.89785,0,0,1,173.3731,33.491Z" transform="translate(-18.38788 -15.14978)" style="fill:#ffbe57"/><path d="M266.08782,129.19376a4.29455,4.29455,0,0,1-2.88991,4.19587.96516.96516,0,0,0-.1832.06971c-11.09888,3.41229-22.33675,6.74638-33.11343,11.15116-.04378.01721-.08714.03464-.13049.05207-1.2624.52239-2.51586,1.05327-3.76933,1.6018-3.05568,1.3406-6.05865,2.77684-9.00976,4.33507a.0086.0086,0,0,0-.00893.00871c-1.03584.54831-2.06319,1.10555-3.0816,1.68872a43.99872,43.99872,0,0,0-15.93848,14.64187,100.77051,100.77051,0,0,0-5.52776,9.75827q-.66626,1.345-1.30575,2.71606c-.43525.92257-.862,1.86278-1.2709,2.803a.03132.03132,0,0,0-.00893.02614c-1.66279,3.77783-3.15981,7.6343-4.54377,11.53413-3.32558,9.35788-6.03272,18.97673-8.91413,28.3956a2.884,2.884,0,0,1-1.5493,2.40259.44533.44533,0,0,1-.13049.061,1.27093,1.27093,0,0,1-.22655.09564c-.11306.03485-.21763.06971-.33069.09585-.10456.02614-.21762.04357-.32219.06078a1.90021,1.90021,0,0,1-.31326.02635v-.00893l.4701-48.03414.31326-32.71325a15.11582,15.11582,0,0,1,15.10326-14.96406Z" transform="translate(-18.38788 -15.14978)" style="fill:#ea971f"/></svg>